<svg width="39" height="20" viewBox="0 0 39 20" fill="none" xmlns="http://www.w3.org/2000/svg">
<path d="M8.87695 11.3379C8.87695 10.7129 8.6556 10.2311 8.21289 9.89258C7.77669 9.55404 6.98568 9.21224 5.83984 8.86719C4.69401 8.52214 3.78255 8.13802 3.10547 7.71484C1.8099 6.90104 1.16211 5.83984 1.16211 4.53125C1.16211 3.38542 1.6276 2.44141 2.55859 1.69922C3.49609 0.957031 4.71029 0.585938 6.20117 0.585938C7.19076 0.585938 8.07292 0.768229 8.84766 1.13281C9.6224 1.4974 10.2311 2.01823 10.6738 2.69531C11.1165 3.36589 11.3379 4.11133 11.3379 4.93164H8.87695C8.87695 4.18945 8.64258 3.61003 8.17383 3.19336C7.71159 2.77018 7.04753 2.55859 6.18164 2.55859C5.37435 2.55859 4.74609 2.73112 4.29688 3.07617C3.85417 3.42122 3.63281 3.90299 3.63281 4.52148C3.63281 5.04232 3.8737 5.47852 4.35547 5.83008C4.83724 6.17513 5.63151 6.51367 6.73828 6.8457C7.84505 7.17122 8.73372 7.54557 9.4043 7.96875C10.0749 8.38542 10.5664 8.86719 10.8789 9.41406C11.1914 9.95443 11.3477 10.5892 11.3477 11.3184C11.3477 12.5033 10.8919 13.4473 9.98047 14.1504C9.07552 14.847 7.84505 15.1953 6.28906 15.1953C5.26042 15.1953 4.31315 15.0065 3.44727 14.6289C2.58789 14.2448 1.91732 13.7174 1.43555 13.0469C0.960286 12.3763 0.722656 11.5951 0.722656 10.7031H3.19336C3.19336 11.5104 3.46029 12.1354 3.99414 12.5781C4.52799 13.0208 5.29297 13.2422 6.28906 13.2422C7.14844 13.2422 7.79297 13.0697 8.22266 12.7246C8.65885 12.373 8.87695 11.9108 8.87695 11.3379ZM16.7188 10.4688L15.6641 11.5527V15H13.291V0H15.6641V8.65234L16.4062 7.72461L19.3262 4.43359H22.1777L18.252 8.83789L22.5977 15H19.8535L16.7188 10.4688ZM26.2598 15H23.8867V4.43359H26.2598V15ZM23.7402 1.68945C23.7402 1.32487 23.8542 1.02214 24.082 0.78125C24.3164 0.540365 24.6484 0.419922 25.0781 0.419922C25.5078 0.419922 25.8398 0.540365 26.0742 0.78125C26.3086 1.02214 26.4258 1.32487 26.4258 1.68945C26.4258 2.04753 26.3086 2.34701 26.0742 2.58789C25.8398 2.82227 25.5078 2.93945 25.0781 2.93945C24.6484 2.93945 24.3164 2.82227 24.082 2.58789C23.8542 2.34701 23.7402 2.04753 23.7402 1.68945ZM38.1055 9.82422C38.1055 11.4583 37.7344 12.7637 36.9922 13.7402C36.25 14.7103 35.2539 15.1953 34.0039 15.1953C32.8451 15.1953 31.9173 14.8145 31.2207 14.0527V19.0625H28.8477V4.43359H31.0352L31.1328 5.50781C31.8294 4.66146 32.7767 4.23828 33.9746 4.23828C35.2637 4.23828 36.2728 4.72005 37.002 5.68359C37.7376 6.64062 38.1055 7.97201 38.1055 9.67773V9.82422ZM35.7422 9.61914C35.7422 8.56445 35.5306 7.72786 35.1074 7.10938C34.6908 6.49089 34.0918 6.18164 33.3105 6.18164C32.3405 6.18164 31.6439 6.58203 31.2207 7.38281V12.0703C31.6504 12.8906 32.3535 13.3008 33.3301 13.3008C34.0853 13.3008 34.6745 12.998 35.0977 12.3926C35.5273 11.7806 35.7422 10.8561 35.7422 9.61914Z" fill="black"/>
</svg>
